<?xml version="1.0" encoding="UTF-8"?>
<svg id="Layer_1" data-name="Layer 1" xmlns="http://www.w3.org/2000/svg" version="1.1" viewBox="0 0 360 124">
  <defs>
    <style>
      .cls-1 {
        fill: #000;
      }

      .cls-1, .cls-2 {
        stroke-width: 0px;
      }

      .cls-2 {
        fill: #01208f;
        fill-rule: evenodd;
      }
    </style>
  </defs>
  <path class="cls-2" d="M103.5,26L62,2c-4.2-2.5-9.4-2.5-13.7,0L6.8,26c-4.2,2.5-6.8,7-6.8,11.9v48.1c0,4.9,2.6,9.4,6.8,11.9l41.5,24.1c4.2,2.5,9.4,2.5,13.7,0l41.5-24.1c4.2-2.5,6.8-7,6.8-11.9v-48.1c0-4.9-2.6-9.4-6.8-11.9ZM76.7,33.4l-8.2,21.7,12.5,33h16.4l-20.7-54.7ZM51.4,33.4l20.7,54.7h-16.4l-12.5-33-12.5,33H14.3l20.7-54.7h16.4Z"/>
  <path class="cls-1" d="M348,48.8h11.9v39.8h-11.9v-39.8ZM354.1,44.7c-1.7,0-3.2-.6-4.3-1.7-1.2-1.1-1.7-2.6-1.7-4.3s.6-3.1,1.7-4.2c1.2-1.2,2.6-1.7,4.3-1.7s3.1.6,4.2,1.7c1.2,1.1,1.8,2.5,1.8,4.2s-.6,3.1-1.7,4.3c-1.1,1.1-2.5,1.7-4.2,1.7Z"/>
  <path class="cls-1" d="M308.9,32.9h13.4l20.2,55.7h-12.6l-3.2-8.7h-22.2l-3.2,8.7h-12.6l20.2-55.7ZM308.9,67.9h13.4l-6.8-18.5-6.7,18.5Z"/>
  <path class="cls-1" d="M245,88.6l14.6-20-14.5-19.9h10.2l9.3,12.8,9.4-12.8h10.2l-14.4,19.9,14.6,20h-10.2l-9.5-13-9.4,13h-10.2Z"/>
  <path class="cls-1" d="M231.1,48.8h8.3v39.8h-8.3l-.3-5.8c-1.2,2-2.7,3.7-4.7,4.9-2,1.2-4.3,1.9-7,1.9s-5.7-.5-8.2-1.6c-2.6-1.1-4.8-2.7-6.8-4.6-1.9-2-3.4-4.2-4.5-6.8-1.1-2.6-1.6-5.3-1.6-8.3s.5-5.5,1.6-8c1.1-2.5,2.5-4.7,4.4-6.6,1.9-1.9,4.1-3.4,6.5-4.4,2.5-1.1,5.2-1.6,8-1.6s5.4.7,7.6,2c2.2,1.3,4.1,3,5.5,5l-.4-5.9ZM218.8,81.6c2.3,0,4.4-.6,6.1-1.7,1.7-1.2,3.1-2.7,4.1-4.7,1-2,1.5-4.1,1.5-6.5s-.5-4.6-1.5-6.6c-1-2-2.3-3.5-4.1-4.7-1.7-1.2-3.8-1.7-6.1-1.7s-4.4.6-6.3,1.7c-1.9,1.2-3.4,2.7-4.5,4.7-1.1,2-1.7,4.1-1.7,6.5s.6,4.6,1.7,6.6c1.2,1.9,2.7,3.5,4.6,4.7,1.9,1.1,4,1.7,6.2,1.7Z"/>
  <path class="cls-1" d="M131,88.6l10.8-55.7h6.7l14.3,37.5,14.2-37.5h6.7l10.8,55.7h-8.4l-7.2-37.3-13.3,35.2h-5.6l-13.3-35.2-7.2,37.3h-8.4Z"/>
</svg>